inDegrees=no
num_controls=7
num_derivatives=13
num_iterations=79
num_multipliers=7
num_parameters=0
num_slacks=7
num_states=26
objective=0.517118
objective_accelerations=0.039150
objective_balance=0.002111
objective_effort=0.043247
objective_height=0.420969
objective_ligament=0.011641
solver_duration=1054.097537
status=Solve_Succeeded
success=true
DataType=double
version=3
OpenSimVersion=4.5
endheader
time	/jointset/ground_pelvis/pelvis_tilt/value	/jointset/ground_pelvis/pelvis_tx/value	/jointset/ground_pelvis/pelvis_ty/value	/jointset/hip_l/hip_flexion_l/value	/jointset/hip_l/hip_adduction_l/value	/jointset/hip_l/hip_rotation_l/value	/jointset/back/lumbar_extension/value	/jointset/patellofemoral_l/patellar_flexion_l/value	/jointset/knee_l/knee_flexion_l/value	/jointset/knee_l/knee_adduction_l/value	/jointset/knee_l/knee_rotation_l/value	/jointset/ankle_l/ankle_angle_l/value	/jointset/subtalar_l/subtalar_angle_l/value	/jointset/ground_pelvis/pelvis_tilt/speed	/jointset/ground_pelvis/pelvis_tx/speed	/jointset/ground_pelvis/pelvis_ty/speed	/jointset/hip_l/hip_flexion_l/speed	/jointset/hip_l/hip_adduction_l/speed	/jointset/hip_l/hip_rotation_l/speed	/jointset/back/lumbar_extension/speed	/jointset/patellofemoral_l/patellar_flexion_l/speed	/jointset/knee_l/knee_flexion_l/speed	/jointset/knee_l/knee_adduction_l/speed	/jointset/knee_l/knee_rotation_l/speed	/jointset/ankle_l/ankle_angle_l/speed	/jointset/subtalar_l/subtalar_angle_l/speed	/forceset/tau_hip_flexion_l	/forceset/tau_hip_adduction_l	/forceset/tau_hip_rotation_l	/forceset/tau_knee_flexion_l	/forceset/tau_ankle_angle_l	/forceset/tau_subtalar_angle_l	/forceset/tau_lumbar_extension	lambda_cid13_p0	lambda_cid13_p1	lambda_cid13_p2	lambda_cid13_p3	lambda_cid13_p4	lambda_cid13_p5	lambda_cid14_p0	/jointset/ground_pelvis/pelvis_tilt/accel	/jointset/ground_pelvis/pelvis_tx/accel	/jointset/ground_pelvis/pelvis_ty/accel	/jointset/hip_l/hip_flexion_l/accel	/jointset/hip_l/hip_adduction_l/accel	/jointset/hip_l/hip_rotation_l/accel	/jointset/back/lumbar_extension/accel	/jointset/patellofemoral_l/patellar_flexion_l/accel	/jointset/knee_l/knee_flexion_l/accel	/jointset/knee_l/knee_adduction_l/accel	/jointset/knee_l/knee_rotation_l/accel	/jointset/ankle_l/ankle_angle_l/accel	/jointset/subtalar_l/subtalar_angle_l/accel	gamma_cid13_p0	gamma_cid13_p1	gamma_cid13_p2	gamma_cid13_p3	gamma_cid13_p4	gamma_cid13_p5	gamma_cid14_p0
0	-0.03682190948052904	0.0566770595428461	0.9203416120733102	0.3085816938045678	-0.2956396792204278	-0.3015953332264491	-0.3879492264334186	0.2499269421185209	0.2499269421184919	-0.1745326498553111	-0.1745209159971944	-0.0008036623358878681	0.0004382732734356715	0	0	0	0	0	0	0	0	0	0	0	0	0	0.04223256843208999	-0.007000333816336802	-0.01706532660018626	-0.2182924038583798	0.173362353664653	-0.03275199446351044	0.03234354383823447	10.53583822685962	9.347762587453925	1.518310905509822	10.08947479550242	-641.5195437989714	-52.65673938762122	-23.19664340828029	-1.214211680847221	-1.651238375503181	-0.7458268059829031	7.824627988454535	-0.4156086770750212	2.732622778302361	-5.278884124721296	7.198222159506724	7.198222159506779	1.42600053236064	0.2157346671072019	1.146680291997808	-0.06816658669273716	-3.970122331330371e-08	2.184657080060606e-07	-5.238778302603367e-08	1.02864680542372e-07	-2.748062809074607e-07	2.130687536826076e-08	3.879935600600943e-08
0.01	-0.0368786953699598	0.05659055273575642	0.9203042707389705	0.3089707162367131	-0.2956626730901546	-0.3014591301346732	-0.3882300761051643	0.2502831823829838	0.2502831823829203	-0.1744671850931926	-0.1745106249154698	-0.0007536378208295647	0.0004300523097233776	-0.01125359939524351	-0.01771242142127711	-0.00752792165020018	0.07817167603297923	-0.004774868317800041	0.02702300915170782	-0.05755240468588165	0.07128410444281398	0.07128410444281136	0.01274910808400033	0.001741599634592693	0.009408653963871682	-0.002030049921481687	0.04863330412271808	-0.01854480397752284	-0.01684143925515708	-0.2171841993181821	0.1598691083743266	-0.0226190808635135	0.02371768988915766	6.734142121286127	5.644225060914618	2.072732993472319	16.75349475380562	-636.0053096198678	-61.39647679717316	-23.20026011639481	-1.065390655512596	-1.892882455124874	-0.7652780231643961	7.868515783698351	-0.5348679534776957	2.654518692299887	-6.20078918956589	7.098904560810838	7.098904560810457	1.147824156715186	0.1058623849515367	0.7485197658157372	-0.3283298702388428	-2.681511056529652e-08	1.15744234835613e-07	5.811908525302275e-08	4.289415266132503e-08	-1.13962509822433e-07	-1.284585111514691e-08	7.043862575606661e-09
0.02	-0.03704490857070475	0.05631459402851494	0.9201898495524031	0.3101524711037702	-0.2957387040519225	-0.3010592212096366	-0.3891279239335822	0.2513533436866321	0.2513533436866327	-0.1742845376081391	-0.1744924198828267	-0.0006274144026843026	0.0003899497117235956	-0.02188546225629221	-0.03789038003036057	-0.01541597044551608	0.1585464869851283	-0.01060741840938692	0.05274116665119737	-0.123399631333418	0.1427842078513072	0.1427842078513031	0.02343654457980203	0.001582790201839579	0.01523978061708366	-0.006376326857492996	0.0550340398133231	-0.03008927413878465	-0.01661755190952521	-0.2160759947781327	0.1463758630839436	-0.01248616726362183	0.01509183594013177	2.990325085390182	1.933553801588831	2.624864715170433	23.3612285259414	-629.6080226671351	-70.0605498533218	-23.21166187888701	-1.089864374007382	-2.144345813065211	-0.81785223500606	8.26525497228859	-0.6271450318323751	2.471652447858647	-6.937848517051733	7.241421952642719	7.24142195264299	1.013666214720994	-0.1643471463620884	0.43117482986503	-0.5314119895989373	-1.392899781728932e-08	1.302276166516545e-08	1.686259535320792e-07	-1.707637521972195e-08	4.68812612625948e-08	-4.699857759855459e-08	-2.471163085479611e-08
0.03	-0.03731515167677314	0.05583213518519065	0.9199958819842549	0.3121380444239416	-0.295875354070733	-0.3004073140425582	-0.3907000670987885	0.2531342918371635	0.2531342918371299	-0.1740013038902206	-0.1744806734522575	-0.0004522376434850513	0.0003008310446425636	-0.03213409749013372	-0.05825484938430738	-0.02332412548794943	0.2378629939014907	-0.01659810218489289	0.0776130545914946	-0.1898619901198166	0.2129501631060885	0.2129501631060819	0.03328042370606463	0.0009557933265022339	0.02007198711401115	-0.01122320224921193	0.04543247072025493	-0.02127889248572718	-0.0160217983541714	-0.2121027309705411	0.1493135522919177	-0.01685902328202208	0.02528377166349953	3.634999307644461	3.67264052723238	2.401482668410759	19.58924300017259	-634.2016226632808	-65.13034408079237	-23.23120679309391	-0.9880108723453153	-1.930520268614057	-0.7692744583340267	7.659065296511725	-0.566377154056217	2.490847503277267	-6.325377819783371	6.835898511357184	6.835898511356657	0.9802974899167267	0.01654939163092772	0.5507086888518954	-0.4277167263527278	-3.798349152617943e-08	1.071881621615652e-07	1.75480208529432e-07	3.099232956941859e-08	-8.84030563127361e-08	-5.148645122147041e-08	-1.198395126125517e-08
0.04	-0.03768701069006723	0.05515642709391391	0.9197244374017864	0.3148956261622858	-0.2960681803480262	-0.2995075098888391	-0.3929018235039402	0.2556032427800824	0.2556032427800807	-0.1736175216353653	-0.1744695119205522	-0.0002204457934680444	0.0001699653411654065	-0.04220864369472489	-0.07654022962085107	-0.03091137330955676	0.3129481706259118	-0.02184267010625512	0.1023205639782628	-0.2493222793200818	0.2803847663393161	0.2803847663393063	0.0435462519658404	0.001465810441188813	0.02656279878074144	-0.01472573413670721	0.03583090162706836	-0.01246851083266947	-0.01542604479844528	-0.2081294671630982	0.1522512414998554	-0.02123187930043924	0.03547570738681509	4.334148634919943	5.405195856018071	2.175707316291067	15.76305762994433	-637.9704218739344	-60.12813072287098	-23.25797796298302	-1.055046568156434	-1.728527989585303	-0.7536707908408657	7.418988933900458	-0.4779218610035987	2.438776737152783	-5.537434599824533	6.695151548332118	6.69515154833222	1.098056041423732	0.06305565164258363	0.7628958638248012	-0.2625432887544499	-6.279964722387155e-08	2.054130858263536e-07	1.80197296242626e-07	8.128864740330529e-08	-2.297931076748786e-07	-5.536267839365444e-08	1.660907157521732e-09
